<svg xmlns="http://www.w3.org/2000/svg" viewBox="0 0 73.72 73.72"><defs><style>.cls-1{fill:none;}.cls-2{fill:#fac710;}</style></defs><title>Recurso 7</title><g id="Capa_2" data-name="Capa 2"><g id="Capa_1-2" data-name="Capa 1"><rect class="cls-1" width="73.72" height="73.72"/><path class="cls-2" d="M58.36,27.64H53.57a11.9,11.9,0,0,0,1.1-9.95,12.53,12.53,0,0,0-8.48-8A11.47,11.47,0,0,0,40,9.61,14.43,14.43,0,0,0,17.6,14.53,12.21,12.21,0,0,0,18.43,38V64.5H52.22V58.36h6.14a6.15,6.15,0,0,0,6.14-6.14V33.79A6.16,6.16,0,0,0,58.36,27.64ZM22.13,32.23A6.17,6.17,0,0,1,17,28.46a6.11,6.11,0,0,1,3.75-8.13l2.46-.83,1.1-2.33a8.38,8.38,0,0,1,7.59-4.82,8.25,8.25,0,0,1,5.34,2l2.4,2a11.1,11.1,0,0,1,4.51-1,6.16,6.16,0,0,1,6.15,6.14H41.07C30.6,21.5,29.2,32.84,22.13,32.23Zm36.23,20H52.22V33.79h6.14Z"/></g></g></svg>