<svg xmlns="http://www.w3.org/2000/svg" viewBox="0 0 70.09 70.09"><defs><style>.cls-1{fill:none;}.cls-2{fill:#fac710;}</style></defs><title>Recurso 8</title><g id="Capa_2" data-name="Capa 2"><g id="Capa_1-2" data-name="Capa 1"><rect class="cls-1" width="70.09" height="70.09"/><path class="cls-2" d="M47.43,33.61,52,29l-10.95-11-4.59,4.58L24.38,10.6a5.84,5.84,0,0,0-8.26,0l-5.55,5.55a5.84,5.84,0,0,0,0,8.26L22.63,36.47,8.76,50.38V61.33h11l13.9-13.9L45.67,59.49a5.86,5.86,0,0,0,8.27,0l5.55-5.55a5.85,5.85,0,0,0,0-8.27ZM27.26,31.07,15.17,19l5.52-5.55h0l3.71,3.71L21,20.64l4.11,4.12,3.48-3.47,4.23,4.23Zm23,23L38.22,42.05l5.54-5.55L48,40.73l-3.48,3.48,4.12,4.12,3.48-3.48,3.7,3.71Z"/><path class="cls-2" d="M60.94,19.3a2.93,2.93,0,0,0,0-4.12L54.1,8.35a3,3,0,0,0-4.12,0l-5.34,5.34,11,11Z"/></g></g></svg>