<?xml version="1.0" encoding="utf-8"?>
<!-- Generator: Adobe Illustrator 23.1.1, SVG Export Plug-In . SVG Version: 6.00 Build 0)  -->
<svg version="1.1" id="Capa_1" xmlns="http://www.w3.org/2000/svg" xmlns:xlink="http://www.w3.org/1999/xlink" x="0px" y="0px"
	 viewBox="0 0 48 48" style="enable-background:new 0 0 48 48;" xml:space="preserve">
<path d="M24,0C10.7,0,0,10.7,0,24s10.7,24,24,24s24-10.7,24-24S37.3,0,24,0z M20,32h-4V20h4V32z M18,18.2c-1.2,0-2.2-1-2.2-2.2
	c0-1.2,1-2.2,2.2-2.2s2.2,1,2.2,2.2C20.2,17.2,19.2,18.2,18,18.2z M34,32h-4v-5.7c0-3.8-4-3.4-4,0V32h-4V20h4v2.2
	c1.7-3.2,8-3.5,8,3.1V32z"/>
</svg>
