<svg xmlns="http://www.w3.org/2000/svg" viewBox="0 0 77.23 77.23"><defs><style>.cls-1{fill:none;}.cls-2{fill:#fac710;}</style></defs><title>Recurso 5</title><g id="Capa_2" data-name="Capa 2"><g id="Capa_1-2" data-name="Capa 1"><rect class="cls-1" width="77.23" height="77.23"/><path class="cls-2" d="M67.57,15.71A38.19,38.19,0,0,0,56.31,14.1c-6.27,0-13,1.29-17.7,4.83C34,15.39,27.19,14.1,20.92,14.1s-13,1.29-17.7,4.83V66.07a1.73,1.73,0,0,0,1.61,1.61c.32,0,.48-.16.8-.16A39.3,39.3,0,0,1,20.92,64c6.27,0,13,1.28,17.69,4.82C43,66.07,50.84,64,56.31,64a32.64,32.64,0,0,1,15.28,3.38,1.49,1.49,0,0,0,.81.16A1.74,1.74,0,0,0,74,65.91v-47A22,22,0,0,0,67.57,15.71Zm0,43.44a37.27,37.27,0,0,0-11.26-1.61c-5.47,0-13.35,2.09-17.7,4.83v-37c4.35-2.73,12.23-4.82,17.7-4.82a37.27,37.27,0,0,1,11.26,1.61Z"/><path class="cls-2" d="M56.31,33.41a37.35,37.35,0,0,1,8,.84v-4.9a43.59,43.59,0,0,0-8-.77,37.15,37.15,0,0,0-14.48,2.67v5.34C45.47,34.54,50.52,33.41,56.31,33.41Z"/><path class="cls-2" d="M41.83,39.81v5.34C45.47,43.09,50.52,42,56.31,42a38,38,0,0,1,8,.83V37.91a43.59,43.59,0,0,0-8-.77A37.71,37.71,0,0,0,41.83,39.81Z"/><path class="cls-2" d="M56.31,45.73A37.15,37.15,0,0,0,41.83,48.4v5.35c3.64-2.06,8.69-3.19,14.48-3.19a37.35,37.35,0,0,1,8,.84V46.51A40.38,40.38,0,0,0,56.31,45.73Z"/></g></g></svg>