<?xml version="1.0" encoding="utf-8"?>
<!-- Generator: Adobe Illustrator 21.0.0, SVG Export Plug-In . SVG Version: 6.00 Build 0)  -->
<svg version="1.1" id="Capa_1" xmlns="http://www.w3.org/2000/svg" xmlns:xlink="http://www.w3.org/1999/xlink" x="0px" y="0px"
	 viewBox="0 0 300 300" style="enable-background:new 0 0 300 300;" xml:space="preserve">
<style type="text/css">
	.st0{fill:#040006;}
	.st1{fill:#FFFFFF;}
	.st2{clip-path:url(#SVGID_2_);fill:#040006;}
</style>
<g>
	<defs>
		<path id="SVGID_1_" d="M177.2,215.5c13.1-1.8,24.9-4.3,35.9-10c17.5-9.2,26.6-24,30.1-43c2.2-12.1,3.8-24.4-0.2-36.3
			c-2.7-7.8-7.4-14.8-11-22.3c-0.7-1.5-1.5-3.5-1-5c3.5-11.7,2.3-23.2-1.7-34.5c-1.2-3.4-3.9-3.4-6.2-2.8c-6.2,1.7-12.3,3.6-18.2,6
			c-3.9,1.5-7.7,3.4-11.1,5.8c-4.4,3.2-8.7,3.5-13.9,2.3c-21.1-4.9-42.2-4.3-63.1,0.6c-3.3,0.8-5.8,0.1-8.5-1.7
			c-9.5-6.2-19.7-10.8-30.9-12.9c-3.8-0.7-6.1,0.1-7.4,4.5c-3.4,11.1-4.4,22-0.8,33.1c0.4,1.2,0,3.2-0.8,4.1
			c-13.7,16.2-15.5,35.1-12.4,55.1c1.9,12.1,5.5,23.6,13.4,33.1c11.3,13.6,26.9,19.3,43.7,22.3c2.8,0.5,5.6,0.9,7.6,1.2
			c-2.4,6.5-4.6,12.9-7.1,19.1c-0.4,1-1.8,1.8-2.9,2.2C93,242.4,80,240,70.1,223.7c-5-8.2-11.8-14.1-21.5-15.5
			c-2.6-0.4-5.4,0.8-8.1,1.3c1.5,2.3,2.6,5.3,4.7,6.6c8.1,4.8,13.1,12.1,16.2,20.4c5.4,14.3,16.2,20.1,30.5,20.8
			c6.7,0.3,13.5,0.1,20.8,0.1c0,9,0.3,18.6-0.1,28.2c-0.2,4.8-5.4,7.3-10.8,5.4c-23.5-8.2-44-21-60.9-39.4
			C23.5,232.8,11.1,211.3,5,186.4c-4-16.2-5.1-32.6-3.9-49.3c2-28.1,11.7-53.2,28.3-75.8c21.7-29.5,50.4-48.8,86.2-57.1
			c37.2-8.6,73-4.2,106.4,14.5C261.9,41.1,287.2,75,296.2,120c8.3,41.6,0.5,80.3-23.9,115.2c-18.5,26.5-43.3,45.1-73.9,55.7
			c-6.9,2.4-11.3-0.9-11.3-8.4c0-12.1,0-24.2,0-36.3C187.1,235.4,185.9,224.8,177.2,215.5z"/>
	</defs>
	<clipPath id="SVGID_2_">
		<use xlink:href="#SVGID_1_"  style="overflow:visible;"/>
	</clipPath>
	<circle class="st2" cx="150" cy="150" r="150"/>
</g>
</svg>
