<svg xmlns="http://www.w3.org/2000/svg" viewBox="0 0 57 57"><defs><style>.cls-1{fill:#fac710;}</style></defs><title>Recurso 10</title><g id="Capa_2" data-name="Capa 2"><g id="Capa_1-2" data-name="Capa 1"><path class="cls-1" d="M28.5,0A28.5,28.5,0,1,0,57,28.5,28.5,28.5,0,0,0,28.5,0ZM47.78,30.26a2.6,2.6,0,0,1-2.61,2.6H33.59V45.51A2.6,2.6,0,0,1,31,48.12H26.54a2.61,2.61,0,0,1-2.61-2.61V32.86H12.43a2.59,2.59,0,0,1-2.6-2.6V27a2.6,2.6,0,0,1,2.6-2.61h11.5V11.78a2.61,2.61,0,0,1,2.61-2.61H31a2.6,2.6,0,0,1,2.6,2.61V24.35H45.17A2.61,2.61,0,0,1,47.78,27Z"/></g></g></svg>