<?xml version="1.0" encoding="utf-8"?>
<!-- Generator: Adobe Illustrator 21.0.0, SVG Export Plug-In . SVG Version: 6.00 Build 0)  -->
<svg version="1.1" id="Capa_1" xmlns="http://www.w3.org/2000/svg" xmlns:xlink="http://www.w3.org/1999/xlink" x="0px" y="0px"
	 viewBox="0 0 300 300" style="enable-background:new 0 0 300 300;" xml:space="preserve">
<style type="text/css">
	.st0{fill:#040006;}
	.st1{fill:#FFFFFF;}
	.st2{clip-path:url(#SVGID_2_);fill:#040006;}
</style>
<path class="st0" d="M150.2,0C67,0-0.8,67.3-0.8,150.6c0,71.9,50.6,132.2,118.3,147.5V184.4h-25v-36.2h25v-12.4
	c0-14,1.5-25.3,4.7-31.8c3.1-7.4,8.5-12.6,16.7-17.2c8.2-4.6,18.3-6.6,31.1-6.6c12.9,0,25.3,1.2,37.4,5.4l-5.9,31.6
	c-7-2-14.4-2.8-20.6-2.8c-6.6,0-11.3,2-13.6,4.7c-3.1,3.1-4.3,8.6-4.3,17.5v11.7h33.1v36.2h-33.1v116.3
	c77.1-6.2,137.8-71.1,137.8-150.1C300.8,67.3,233.5,0,150.2,0z"/>
</svg>
