<svg xmlns="http://www.w3.org/2000/svg" viewBox="0 0 75 75"><defs><style>.cls-1{fill:none;}.cls-2{fill:#fac710;}</style></defs><title>Recurso 9</title><g id="Capa_2" data-name="Capa 2"><g id="Capa_1-2" data-name="Capa 1"><path class="cls-1" d="M0,0H75V75H0Z"/><circle class="cls-2" cx="36.93" cy="37.5" r="10"/><path class="cls-2" d="M28.12,6.25,22.41,12.5H12.5a6.27,6.27,0,0,0-6.25,6.25v37.5A6.27,6.27,0,0,0,12.5,62.5h50a6.27,6.27,0,0,0,6.25-6.25V18.75A6.27,6.27,0,0,0,62.5,12.5H52.59L46.88,6.25Zm8.81,46.87A15.62,15.62,0,1,1,52.56,37.5,15.62,15.62,0,0,1,36.93,53.12Z"/></g></g></svg>