<svg width="74" height="76" viewBox="0 0 74 76" fill="none" xmlns="http://www.w3.org/2000/svg">
<path id="Vector" d="M37 0C16.5605 0 0 17.0081 0 38C0 58.9919 16.5605 76 37 76C57.4395 76 74 58.9919 74 38C74 17.0081 57.4395 0 37 0ZM58.4839 42.2903C58.4839 43.3016 57.6782 44.129 56.6936 44.129H42.9677V58.2258C42.9677 59.2371 42.1621 60.0645 41.1774 60.0645H32.8226C31.8379 60.0645 31.0323 59.2371 31.0323 58.2258V44.129H17.3065C16.3218 44.129 15.5161 43.3016 15.5161 42.2903V33.7097C15.5161 32.6984 16.3218 31.871 17.3065 31.871H31.0323V17.7742C31.0323 16.7629 31.8379 15.9355 32.8226 15.9355H41.1774C42.1621 15.9355 42.9677 16.7629 42.9677 17.7742V31.871H56.6936C57.6782 31.871 58.4839 32.6984 58.4839 33.7097V42.2903Z" fill="#202020"/>
</svg>
